<?xml version="1.0" standalone="no"?>
<!DOCTYPE svg PUBLIC "-//W3C//DTD SVG 20010904//EN"
 "http://www.w3.org/TR/2001/REC-SVG-20010904/DTD/svg10.dtd">
<svg version="1.0" xmlns="http://www.w3.org/2000/svg"
 width="256.000000pt" height="256.000000pt" viewBox="0 0 256.000000 256.000000"
 preserveAspectRatio="xMidYMid meet">

<g transform="translate(0.000000,256.000000) scale(0.100000,-0.100000)"
fill="#000000" stroke="none">
<path d="M1200 2389 c-25 -5 -90 -31 -145 -58 -55 -28 -117 -53 -138 -57 -48
-8 -56 -27 -28 -65 l22 -29 -40 0 c-61 0 -64 -36 -7 -89 22 -21 26 -33 26 -81
0 -31 6 -77 13 -102 l14 -44 -29 -13 c-98 -44 -60 -221 47 -221 l26 0 -3 -147
-3 -148 -120 -52 c-66 -29 -159 -72 -207 -97 -49 -25 -88 -41 -88 -36 0 21
-38 9 -63 -20 -33 -37 -47 -37 -85 -5 -17 14 -38 25 -47 25 -10 0 -33 -11 -51
-25 -18 -14 -41 -25 -51 -25 -21 0 -93 -69 -93 -88 0 -16 22 -15 40 1 8 6 1
-4 -15 -23 -17 -19 -34 -38 -40 -42 -6 -5 -6 -11 2 -19 8 -8 18 -7 39 6 25 15
24 13 -6 -14 -19 -17 -38 -31 -42 -31 -5 0 -8 -7 -8 -15 0 -11 12 -15 45 -15
l45 0 0 -45 c0 -38 3 -45 20 -45 17 0 20 7 20 45 l0 45 45 0 c33 0 45 4 45 15
0 8 -3 15 -7 15 -5 0 -24 14 -43 31 -30 27 -31 29 -6 14 20 -12 31 -14 39 -6
8 8 -1 24 -33 58 -25 26 -35 39 -22 28 17 -14 25 -16 34 -7 9 9 7 16 -5 30 -9
10 -17 20 -17 23 0 2 47 4 105 4 58 0 105 -1 105 -3 0 -2 -7 -16 -15 -32 -8
-15 -34 -90 -59 -167 -124 -387 -166 -533 -166 -572 0 -35 -3 -42 -18 -39 -12
2 -18 14 -20 41 l-3 37 -75 0 -76 0 7 -31 c4 -18 3 -34 -3 -38 -5 -3 -11 -45
-13 -94 l-4 -87 1216 0 c669 0 1218 2 1220 4 6 7 -8 208 -16 229 -6 15 -18 17
-74 15 l-66 -3 -3 -32 c-2 -25 1 -33 12 -33 9 0 16 9 16 20 0 17 7 20 40 20
33 0 40 -3 40 -20 0 -11 5 -20 10 -20 6 0 10 -32 10 -75 l0 -75 -65 0 -65 0 0
70 c0 63 -2 70 -20 70 -17 0 -20 7 -20 42 0 52 -187 665 -226 741 l-15 27 97
0 c93 0 96 -1 81 -18 -31 -34 -11 -59 24 -29 7 6 -3 -6 -23 -28 -38 -41 -48
-65 -26 -65 6 0 20 7 30 17 10 9 20 14 23 11 3 -2 -15 -19 -40 -37 -25 -18
-45 -36 -45 -42 0 -5 23 -9 50 -9 l50 0 0 -45 c0 -38 3 -45 20 -45 17 0 20 7
20 45 l0 45 45 0 c33 0 45 4 45 15 0 8 -3 15 -7 15 -5 0 -24 14 -43 31 -19 17
-24 24 -10 15 13 -9 28 -16 32 -16 17 0 7 28 -17 50 -26 24 -26 24 -4 32 20 8
19 10 -21 58 -24 28 -45 49 -47 46 -3 -3 -16 8 -30 25 -31 37 -71 39 -101 4
-30 -34 -78 -34 -94 0 -13 29 -41 40 -65 26 -13 -7 -27 -4 -53 12 -19 12 -109
53 -199 92 l-166 71 -2 142 -2 141 41 11 c98 27 130 143 56 205 -16 14 -33 25
-38 25 -4 0 -2 19 5 43 7 23 16 72 19 110 7 57 5 74 -13 111 -12 23 -32 49
-46 56 -17 9 -25 22 -25 40 0 40 -53 106 -108 134 -46 23 -144 47 -186 45 -12
-1 -41 -5 -66 -10z m184 -43 c57 -17 111 -57 131 -96 27 -52 16 -66 -14 -18
-36 57 -98 88 -186 96 -82 6 -136 -8 -222 -58 -59 -34 -78 -40 -124 -39 l-54
0 50 18 c28 9 70 30 95 46 98 62 221 82 324 51z m-34 -56 c0 -5 -4 -10 -10
-10 -5 0 -10 5 -10 10 0 6 5 10 10 10 6 0 10 -4 10 -10z m-32 -21 c-2 -6 -8
-10 -13 -10 -5 0 -11 4 -13 10 -2 6 4 11 13 11 9 0 15 -5 13 -11z m112 -18 c0
-12 -20 -25 -27 -18 -7 7 6 27 18 27 5 0 9 -4 9 -9z m-226 -29 c7 -12 -5 -26
-49 -55 -39 -26 -80 -36 -73 -18 3 10 99 79 110 80 4 1 9 -3 12 -7z m126 -22
c0 -12 -40 -33 -47 -26 -9 8 28 47 38 40 5 -3 9 -9 9 -14z m271 -93 c6 -15 9
-30 5 -34 -3 -3 -6 0 -6 7 0 7 -12 29 -26 47 -23 30 -23 33 -5 22 11 -8 26
-26 32 -42z m-634 36 c-20 -2 -52 -2 -70 0 -17 2 0 4 38 4 39 0 53 -2 32 -4z
m491 -103 c62 -83 72 -116 72 -234 0 -114 -19 -219 -44 -244 -10 -11 -22 -6
-62 28 -27 22 -60 43 -74 47 -14 3 -31 10 -38 16 -8 6 -20 7 -35 0 -29 -12
-55 -6 -60 15 -3 12 -5 10 -6 -5 -1 -17 -7 -23 -25 -23 -14 0 -44 -17 -71 -40
-25 -22 -53 -40 -60 -40 -8 0 -22 15 -32 33 -15 27 -19 63 -21 224 l-4 191 53
-15 c35 -10 79 -14 138 -11 79 4 93 8 161 45 41 23 78 42 81 42 3 1 15 -12 27
-29z m-498 -230 c0 -16 -5 -19 -22 -15 -13 3 -30 1 -38 -4 -12 -9 -10 -15 13
-39 15 -15 24 -32 20 -37 -5 -4 0 -5 10 -2 14 5 17 1 17 -23 0 -33 -5 -35 -45
-20 -75 28 -57 160 22 160 16 0 23 -6 23 -20z m680 -2 c23 -25 27 -83 7 -109
-15 -20 -51 -39 -71 -39 -24 0 -21 52 4 68 11 7 22 11 25 10 2 -2 11 6 19 17
20 28 2 48 -36 40 -20 -5 -28 -3 -28 8 0 34 49 37 80 5z m-434 -208 c-16 -5
-43 -23 -60 -39 -34 -33 -75 -52 -109 -50 -15 1 -10 4 14 11 20 5 57 27 84 49
30 25 57 39 74 38 l26 -1 -29 -8z m147 -1 c12 -6 36 -24 52 -40 17 -16 48 -33
70 -38 32 -7 35 -9 13 -10 -38 -1 -70 13 -112 49 -19 17 -48 35 -63 40 -25 8
-26 8 -5 9 13 1 33 -4 45 -10z m-73 -80 c0 -5 -7 -9 -15 -9 -15 0 -20 12 -9
23 8 8 24 -1 24 -14z m-325 -227 c-6 -5 -84 -42 -175 -83 -91 -40 -181 -87
-201 -104 -28 -23 -27 -21 5 9 29 28 89 60 206 112 171 76 180 80 165 66z
m790 -71 c172 -77 229 -114 257 -166 6 -11 -11 3 -38 31 -42 43 -73 60 -226
128 -154 68 -191 86 -174 86 1 0 83 -36 181 -79z m-1105 -216 c7 -8 21 -15 31
-15 11 0 19 -6 19 -12 0 -7 16 -24 35 -37 l35 -24 40 27 c24 16 38 31 34 38
-5 7 -2 9 9 5 8 -3 21 0 27 8 21 25 49 27 78 7 15 -10 33 -17 41 -14 8 3 11 0
7 -6 -4 -7 11 -24 34 -41 l41 -30 69 45 c38 24 73 44 79 44 31 0 12 -25 -63
-78 l-83 -60 -29 22 c-16 12 -52 38 -80 59 l-50 36 -77 -55 -77 -56 -69 51
c-37 28 -71 51 -74 51 -3 0 -24 -16 -47 -35 -40 -33 -42 -34 -66 -19 -13 9
-24 22 -24 29 0 21 11 45 21 45 4 0 6 -6 3 -14 -3 -8 -1 -17 5 -20 12 -8 56
13 47 21 -5 5 50 41 65 42 4 1 12 -6 19 -14z m985 -5 c22 -11 35 -20 30 -20
-10 0 67 -59 78 -60 15 0 67 44 67 57 0 7 8 13 19 13 10 0 24 7 31 15 7 8 18
15 25 15 7 0 18 -7 25 -15 7 -8 21 -15 32 -15 10 0 17 -4 14 -9 -3 -5 1 -15
10 -22 17 -14 51 0 46 20 -1 6 7 11 17 11 35 0 29 -33 -11 -63 l-38 -29 -48
40 -47 40 -69 -54 c-38 -30 -71 -54 -73 -54 -2 0 -36 24 -76 54 l-71 55 -51
-37 c-27 -20 -62 -45 -77 -55 l-27 -20 -63 46 c-81 57 -96 74 -75 83 10 3 39
-10 75 -35 32 -23 63 -41 69 -41 6 0 28 15 47 34 20 18 36 31 36 29 0 -2 12 5
26 16 33 26 31 26 79 1z m-855 -35 c0 -8 -4 -15 -10 -15 -5 0 -10 7 -10 15 0
8 5 15 10 15 6 0 10 -7 10 -15z m318 -3 c2 -7 -3 -12 -12 -12 -9 0 -16 7 -16
16 0 17 22 14 28 -4z m352 3 c0 -8 -4 -15 -9 -15 -13 0 -22 16 -14 24 11 11
23 6 23 -9z m302 0 c0 -5 -5 -11 -11 -13 -6 -2 -11 4 -11 13 0 9 5 15 11 13 6
-2 11 -8 11 -13z m-472 -15 c0 -5 -4 -10 -10 -10 -5 0 -10 5 -10 10 0 6 5 10
10 10 6 0 10 -4 10 -10z m-280 -65 c43 -30 81 -55 85 -55 4 0 37 21 73 47 90
64 117 64 203 1 37 -26 70 -48 73 -48 3 0 40 25 81 56 46 33 80 52 88 48 6 -5
42 -30 80 -57 l68 -49 67 55 66 55 49 -39 49 -39 41 30 c23 17 44 27 48 23 10
-12 20 -63 12 -61 -5 2 -30 -13 -57 -32 l-48 -35 71 -3 c39 -2 71 -7 71 -12 0
-6 -314 -10 -845 -10 -557 0 -845 3 -845 10 0 6 28 10 63 10 l62 0 -34 28
c-19 15 -41 32 -49 38 -11 8 -12 18 -5 39 l9 27 31 -26 32 -27 40 37 41 36 57
-49 c32 -27 63 -52 69 -56 6 -4 47 20 90 53 44 33 81 60 82 60 2 0 39 -25 82
-55z m-280 -164 c0 -20 -27 -24 -167 -25 -136 -1 -160 4 -136 27 10 11 303 8
303 -2z m1414 -7 c3 -9 6 -17 6 -19 0 -2 -66 -3 -147 -2 -136 2 -162 7 -163
30 0 4 67 7 149 7 127 0 150 -2 155 -16z m-326 -24 c4 -12 2 -13 -9 -2 -19 17
-1029 18 -1047 0 -7 -7 -12 -8 -12 -2 0 6 3 14 7 17 3 4 243 6 531 5 457 -3
526 -5 530 -18z m-1398 -35 c0 -8 -4 -15 -10 -15 -5 0 -7 7 -4 15 4 8 8 15 10
15 2 0 4 -7 4 -15z m50 0 c0 -8 -7 -15 -15 -15 -16 0 -20 12 -8 23 11 12 23 8
23 -8z m50 -6 c0 -5 -9 -9 -20 -9 -22 0 -27 16 -7 23 15 5 27 -1 27 -14z m90
6 c0 -8 -7 -15 -15 -15 -8 0 -15 7 -15 15 0 8 7 15 15 15 8 0 15 -7 15 -15z
m48 -3 c2 -7 -6 -12 -17 -12 -21 0 -27 11 -14 24 9 9 26 2 31 -12z m1262 3 c0
-8 -7 -15 -15 -15 -8 0 -15 7 -15 15 0 8 7 15 15 15 8 0 15 -7 15 -15z m40 0
c0 -8 -7 -15 -15 -15 -16 0 -20 12 -8 23 11 12 23 8 23 -8z m50 -6 c0 -5 -7
-9 -15 -9 -15 0 -20 12 -9 23 8 8 24 -1 24 -14z m50 0 c0 -5 -9 -9 -20 -9 -22
0 -27 16 -7 23 15 5 27 -1 27 -14z m40 6 c0 -8 -7 -15 -15 -15 -16 0 -20 12
-8 23 11 12 23 8 23 -8z m64 0 c4 -11 -2 -15 -24 -15 -30 0 -41 14 -17 23 22
10 35 7 41 -8z m-1604 -5 c0 -5 -7 -10 -15 -10 -8 0 -15 5 -15 10 0 6 7 10 15
10 8 0 15 -4 15 -10z m135 0 c-3 -5 -10 -10 -16 -10 -5 0 -9 5 -9 10 0 6 7 10
16 10 8 0 12 -4 9 -10z m1175 0 c0 -5 -4 -10 -10 -10 -5 0 -10 5 -10 10 0 6 5
10 10 10 6 0 10 -4 10 -10z m-580 -172 c0 -6 3 -8 6 -5 12 11 44 -34 40 -56
-1 -12 -11 -26 -22 -31 -10 -6 -22 -14 -25 -19 -3 -4 -15 2 -26 12 -11 11 -24
17 -29 13 -4 -4 -4 1 -1 11 4 9 2 17 -5 17 -7 0 -6 5 2 15 7 8 9 15 5 15 -5 0
2 9 15 20 26 23 40 26 40 8z m-528 -127 c3 -3 9 -36 13 -73 l7 -68 -56 0 c-65
0 -79 -16 -54 -61 14 -24 14 -28 1 -33 -25 -10 -113 -7 -113 4 0 5 -7 7 -15 4
-9 -4 -30 9 -55 34 -35 34 -40 46 -40 84 0 53 27 93 74 113 30 13 223 10 238
-4z m1308 -9 c14 -10 31 -37 39 -59 13 -35 13 -46 0 -79 -18 -48 -71 -86 -102
-75 -12 4 -40 5 -62 2 l-40 -6 55 -6 c51 -6 49 -6 -22 -6 l-76 1 24 23 c16 15
24 32 22 46 -3 20 -9 22 -66 25 -63 3 -63 3 -58 30 3 15 8 48 12 74 l6 47 87
4 c116 5 151 1 181 -21z"/>
<path d="M1047 1884 c-4 -4 -7 -16 -7 -26 0 -14 8 -18 32 -18 32 0 32 0 10
-16 -25 -17 -30 -39 -7 -30 9 3 19 -3 25 -14 14 -25 25 -25 50 0 12 12 25 18
30 15 17 -10 11 12 -6 26 -15 12 -14 14 7 19 15 4 24 13 24 25 0 18 -8 20 -75
23 -42 1 -79 0 -83 -4z"/>
<path d="M1327 1884 c-4 -4 -7 -16 -7 -26 0 -13 8 -18 28 -19 15 0 21 -3 14
-6 -7 -2 -17 -14 -23 -25 -10 -18 -9 -20 5 -15 10 4 19 1 22 -8 8 -19 48 -19
64 0 7 8 16 12 21 9 16 -9 9 13 -8 27 -14 13 -13 15 13 19 21 4 29 11 29 25 0
18 -8 20 -75 23 -42 1 -79 0 -83 -4z"/>
<path d="M847 827 l-59 -42 61 -3 c34 -2 89 -2 123 0 l61 3 -60 43 c-34 23
-63 42 -65 41 -1 0 -29 -19 -61 -42z m81 -15 c2 -7 -3 -12 -12 -12 -9 0 -16 7
-16 16 0 17 22 14 28 -4z"/>
<path d="M1191 827 l-55 -42 62 -3 c34 -2 89 -2 123 0 l61 3 -61 43 c-33 23
-64 42 -68 41 -4 0 -32 -19 -62 -42z m79 -18 c0 -5 -7 -9 -15 -9 -15 0 -20 12
-9 23 8 8 24 -1 24 -14z"/>
<path d="M1533 831 c-29 -20 -56 -41 -60 -44 -3 -4 49 -7 117 -7 l124 0 -62
45 c-34 25 -63 45 -64 45 -2 0 -27 -18 -55 -39z m65 -19 c2 -7 -3 -12 -12 -12
-9 0 -16 7 -16 16 0 17 22 14 28 -4z"/>
<path d="M1820 810 l-35 -29 74 -1 74 0 -38 30 c-21 17 -38 30 -39 30 0 0 -17
-14 -36 -30z"/>
<path d="M600 805 l-23 -25 59 0 59 1 -28 24 c-35 31 -38 31 -67 0z"/>
<path d="M578 123 c12 -2 32 -2 45 0 12 2 2 4 -23 4 -25 0 -35 -2 -22 -4z"/>
<path d="M386 1304 c-11 -29 -6 -34 29 -34 19 0 35 4 35 9 0 24 -14 41 -35 41
-13 0 -26 -7 -29 -16z"/>
<path d="M127 693 c-4 -3 -7 -21 -7 -40 l0 -33 86 0 87 0 -7 31 c-3 17 -6 35
-6 40 0 10 -143 12 -153 2z"/>
<path d="M2250 635 c0 -25 0 -25 95 -25 95 0 95 0 95 25 0 25 0 25 -95 25 -95
0 -95 0 -95 -25z"/>
<path d="M120 560 c0 -20 5 -21 82 -18 70 3 83 6 86 21 3 15 -6 17 -82 17 -80
0 -86 -1 -86 -20z"/>
<path d="M2250 546 c0 -11 20 -14 91 -15 52 -1 88 3 85 8 -4 5 0 12 6 14 7 3
-31 6 -84 6 -78 1 -98 -2 -98 -13z"/>
<path d="M2307 464 c-13 -14 -7 -62 9 -68 23 -9 77 -7 92 3 8 5 12 21 10 37
-3 27 -6 29 -53 32 -28 2 -54 0 -58 -4z"/>
</g>
</svg>
